<svg width="267px" height="194px" id="Layer_1" data-name="Layer 1" xmlns="http://www.w3.org/2000/svg" xmlns:xlink="http://www.w3.org/1999/xlink" viewBox="0 0 267 194"><defs><style>.cls-1{fill:#42a8d5;}.cls-2{fill:#184a94;}.cls-3{fill:url(#linear-gradient);}.cls-4{fill:url(#linear-gradient-2);}</style><linearGradient id="linear-gradient" x1="49.97" y1="198.33" x2="49.97" y2="-27.31" gradientUnits="userSpaceOnUse"><stop offset="0.01" stop-color="#0197c3"/><stop offset="1" stop-color="#07559c"/></linearGradient><linearGradient id="linear-gradient-2" x1="26.63" y1="-30.93" x2="26.63" y2="158.56" xlink:href="#linear-gradient"/></defs><title>KBC_startitfund_outlines</title><path class="cls-1" d="M121.29,114.67c4.16,0,6.32-2.36,6.76-4.52,0.52-3.4-2.12-5.12-5.24-5.84l-3.72-.84c-5.72-1.28-6.48-4.6-6.48-6.92,0-4.48,4.24-7.52,8.64-7.52,4.88,0,8.64,3.08,8.64,7.88h-2.64c0-3.2-2.6-5.24-6-5.24-3,0-6,2-6,4.88,0,1.44.52,3.48,4.4,4.36l3.76,0.84c4.4,1,8,3.6,7.24,8.88-0.64,3.2-3.68,6.68-9.36,6.68a8.66,8.66,0,0,1-8.92-8.32H115A6,6,0,0,0,121.29,114.67Z"/><path class="cls-1" d="M154.07,89.36V92h-8.84v24.91H142.6V92h-8.84V89.36h20.31Z"/><path class="cls-1" d="M153.67,116.91l10.6-27.55h2.8l10.6,27.55h-2.84l-2.8-7.24H159.27l-2.76,7.24h-2.84Zm12-23.87-5.44,14.15H171.1Z"/><path class="cls-1" d="M200.56,116.91h-3.24l-7.6-10.76h-4.64v10.76h-2.68V89.36h10.24c5.6,0,7.64,4.2,7.64,8.44s-2,8.2-7.32,8.36ZM185.09,92v11.52h7.36c3.88,0,5.2-2.8,5.2-5.72s-1.32-5.8-5-5.8h-7.56Z"/><path class="cls-1" d="M223.91,89.36V92h-8.84v24.91h-2.64V92H203.6V89.36h20.31Z"/><path class="cls-1" d="M241.17,116.91h-2.64V89.36h2.64v27.55Z"/><path class="cls-1" d="M266.64,89.36V92H257.8v24.91h-2.64V92h-8.84V89.36h20.31Z"/><path class="cls-2" d="M113.06,133.32h20.13v6H119.92v7.33h10.51v6H119.92V165.5h-6.86V133.32Z"/><path class="cls-2" d="M156.86,154V133.32h6.86V154c0,7.28-5.84,12-12.42,12s-12.51-4.67-12.51-12V133.32h7V154A5.56,5.56,0,0,0,156.86,154Z"/><path class="cls-2" d="M196,165.5h-6.12L178.71,146V165.5h-6.82V133.32h6.26l11,19.24V133.32H196V165.5Z"/><path class="cls-2" d="M204.53,165.5V133.32h12.61c9.25,0,14.52,7,14.52,16.16s-5.28,16-14.52,16H204.53Zm6.82-6.21h5.79c5.14,0,7.71-4.53,7.71-9.81s-2.57-9.95-7.71-9.95h-5.79v19.75Z"/><path class="cls-3" d="M51,194.38a26.67,26.67,0,0,1-27.53-23.91,2.49,2.49,0,0,1,2.5-2.7h0A2.5,2.5,0,0,1,28.45,170,21.67,21.67,0,0,0,49.61,189.4c12.1,0.2,22-10.1,22-22.2V63.06c0-12.1-9.9-22.4-22-22.2A21.66,21.66,0,0,0,28.34,62.49v77.58a2.5,2.5,0,0,1-2.5,2.5h0a2.5,2.5,0,0,1-2.5-2.5V63.15c0-14.42,11.19-26.72,25.6-27.27A26.66,26.66,0,0,1,76.6,62.49V167.11C76.6,181.53,65.41,193.83,51,194.38Z"/><path class="cls-4" d="M25.6,158.52C11.19,158,0,145.67,0,131.25v-104C0,13.17,11.5.55,25.6,0A26.66,26.66,0,0,1,53.13,24a2.42,2.42,0,0,1-2.43,2.63H50.64a2.5,2.5,0,0,1-2.49-2.26A21.67,21.67,0,0,0,27,5C14.81,4.79,5,15,5,27.2V131.33c0,12.1,9.9,22.41,22,22.2a21.66,21.66,0,0,0,21.27-21.63V52.16a2.5,2.5,0,0,1,2.5-2.5h0a2.5,2.5,0,0,1,2.5,2.5v79.74A26.66,26.66,0,0,1,25.6,158.52Z"/><path class="cls-1" d="M131.25,75.56h-3.56l-12.27-13v13h-2.64V48h2.64V61.41L125.81,48h3.12L118.21,61.81Z"/><path class="cls-1" d="M148.91,60.89c2.8,0.52,4.84,3.92,4.84,7A7.38,7.38,0,0,1,146,75.56h-11V48h10c4.44,0,7.16,2.64,7.16,6.84C152.27,57.45,151.43,60,148.91,60.89Zm-3.48-1.16c2.88,0,4.2-2.36,4.2-4.88,0-2.76-2-4.24-4.8-4.24h-7.08v9.12h7.68Zm-7.68,2.48V72.92H146a5,5,0,0,0,5.12-5.08c0-2.52-2.08-5.64-5.28-5.64h-8.08Z"/><path class="cls-1" d="M181.26,71.84A13.61,13.61,0,0,1,171.42,76c-7.8,0-13.35-6.32-13.35-14.11s5.56-14.15,13.35-14.15a13.51,13.51,0,0,1,9.8,4.12l-1.84,1.84a11.14,11.14,0,0,0-8-3.32c-6.36,0-10.71,5.16-10.71,11.52s4.36,11.48,10.71,11.48a11.11,11.11,0,0,0,8-3.36Z"/></svg>